<svg width="894" height="894" xmlns="http://www.w3.org/2000/svg" xml:space="preserve" version="1.1">
 <desc>Copyright (c) 2022 Elycts Shaders</desc>

 <title>Mask_LaunchpadPro</title>
 <g>
  <title>Layer 1</title>
  <g id="svg_1">
   <path id="svg_2" d="m513.5,372.5l-49,0c-4.4,0 -8,3.6 -8,8l0,49c0,4.4 3.6,8 8,8l49,0c4.4,0 8,-3.6 8,-8l0,-49c0,-4.4 -3.6,-8 -8,-8z"/>
   <path id="svg_3" d="m513.5,288.5l-49,0c-4.4,0 -8,3.6 -8,8l0,49c0,4.4 3.6,8 8,8l49,0c4.4,0 8,-3.6 8,-8l0,-49c0,-4.4 -3.6,-8 -8,-8z"/>
   <path id="svg_4" d="m513.5,120.5l-49,0c-4.4,0 -8,3.6 -8,8l0,49c0,4.4 3.6,8 8,8l49,0c4.4,0 8,-3.6 8,-8l0,-49c0,-4.4 -3.6,-8 -8,-8z"/>
   <path id="svg_5" d="m513.5,204.5l-49,0c-4.4,0 -8,3.6 -8,8l0,49c0,4.4 3.6,8 8,8l49,0c4.4,0 8,-3.6 8,-8l0,-49c0,-4.4 -3.6,-8 -8,-8z"/>
   <path id="svg_6" d="m261.5,372.5l-49,0c-4.4,0 -8,3.6 -8,8l0,49c0,4.4 3.6,8 8,8l49,0c4.4,0 8,-3.6 8,-8l0,-49c0,-4.4 -3.6,-8 -8,-8z"/>
   <path id="svg_7" d="m153.5,810.5l-1,0c-12.2,0 -22,9.8 -22,22l0,1c0,12.2 9.8,22 22,22l1,0c12.2,0 22,-9.8 22,-22l0,-1c0,-12.2 -9.8,-22 -22,-22z"/>
   <path id="svg_8" d="m513.5,540.5l-49,0c-4.4,0 -8,3.6 -8,8l0,49c0,4.4 3.6,8 8,8l49,0c4.4,0 8,-3.6 8,-8l0,-49c0,-4.4 -3.6,-8 -8,-8z"/>
   <path id="svg_9" d="m177.5,540.5l-49,0c-4.4,0 -8,3.6 -8,8l0,49c0,4.4 3.6,8 8,8l49,0c4.4,0 8,-3.6 8,-8l0,-49c0,-4.4 -3.6,-8 -8,-8z"/>
   <path id="svg_10" d="m513.5,624.5l-49,0c-4.4,0 -8,3.6 -8,8l0,49c0,4.4 3.6,8 8,8l49,0c4.4,0 8,-3.6 8,-8l0,-49c0,-4.4 -3.6,-8 -8,-8z"/>
   <path id="svg_11" d="m177.5,624.5l-49,0c-4.4,0 -8,3.6 -8,8l0,49c0,4.4 3.6,8 8,8l49,0c4.4,0 8,-3.6 8,-8l0,-49c0,-4.4 -3.6,-8 -8,-8z"/>
   <path id="svg_12" d="m177.5,708.5l-49,0c-4.4,0 -8,3.6 -8,8l0,49c0,4.4 3.6,8 8,8l49,0c4.4,0 8,-3.6 8,-8l0,-49c0,-4.4 -3.6,-8 -8,-8z"/>
   <path id="svg_13" d="m513.5,456.5l-49,0c-4.4,0 -8,3.6 -8,8l0,49c0,4.4 3.6,8 8,8l49,0c4.4,0 8,-3.6 8,-8l0,-49c0,-4.4 -3.6,-8 -8,-8z"/>
   <path id="svg_14" d="m597.5,288.5l-49,0c-4.4,0 -8,3.6 -8,8l0,49c0,4.4 3.6,8 8,8l49,0c4.4,0 8,-3.6 8,-8l0,-49c0,-4.4 -3.6,-8 -8,-8z"/>
   <path id="svg_15" d="m61.5,298.5l-1,0c-12.2,0 -22,9.8 -22,22l0,1c0,12.2 9.8,22 22,22l1,0c12.2,0 22,-9.8 22,-22l0,-1c0,-12.2 -9.8,-22 -22,-22z"/>
   <path id="svg_16" d="m597.5,372.5l-49,0c-4.4,0 -8,3.6 -8,8l0,49c0,4.4 3.6,8 8,8l49,0c4.4,0 8,-3.6 8,-8l0,-49c0,-4.4 -3.6,-8 -8,-8z"/>
   <path id="svg_17" d="m177.5,456.5l-49,0c-4.4,0 -8,3.6 -8,8l0,49c0,4.4 3.6,8 8,8l49,0c4.4,0 8,-3.6 8,-8l0,-49c0,-4.4 -3.6,-8 -8,-8z"/>
   <path id="svg_18" d="m597.5,204.5l-49,0c-4.4,0 -8,3.6 -8,8l0,49c0,4.4 3.6,8 8,8l49,0c4.4,0 8,-3.6 8,-8l0,-49c0,-4.4 -3.6,-8 -8,-8z"/>
   <path id="svg_19" d="m61.5,382.5l-1,0c-12.2,0 -22,9.8 -22,22l0,1c0,12.2 9.8,22 22,22l1,0c12.2,0 22,-9.8 22,-22l0,-1c0,-12.2 -9.8,-22 -22,-22z"/>
   <path id="svg_20" d="m321.5,810.5l-1,0c-12.2,0 -22,9.8 -22,22l0,1c0,12.2 9.8,22 22,22l1,0c12.2,0 22,-9.8 22,-22l0,-1c0,-12.2 -9.8,-22 -22,-22z"/>
   <path id="svg_21" d="m573.5,810.5l-1,0c-12.2,0 -22,9.8 -22,22l0,1c0,12.2 9.8,22 22,22l1,0c12.2,0 22,-9.8 22,-22l0,-1c0,-12.2 -9.8,-22 -22,-22z"/>
   <path id="svg_22" d="m597.5,624.5l-49,0c-4.4,0 -8,3.6 -8,8l0,49c0,4.4 3.6,8 8,8l49,0c4.4,0 8,-3.6 8,-8l0,-49c0,-4.4 -3.6,-8 -8,-8z"/>
   <path id="svg_23" d="m597.5,456.5l-49,0c-4.4,0 -8,3.6 -8,8l0,49c0,4.4 3.6,8 8,8l49,0c4.4,0 8,-3.6 8,-8l0,-49c0,-4.4 -3.6,-8 -8,-8z"/>
   <path id="svg_24" d="m597.5,708.5l-49,0c-4.4,0 -8,3.6 -8,8l0,49c0,4.4 3.6,8 8,8l49,0c4.4,0 8,-3.6 8,-8l0,-49c0,-4.4 -3.6,-8 -8,-8z"/>
   <path id="svg_25" d="m61.5,130.5l-1,0c-12.2,0 -22,9.8 -22,22l0,1c0,12.2 9.8,22 22,22l1,0c12.2,0 22,-9.8 22,-22l0,-1c0,-12.2 -9.8,-22 -22,-22z"/>
   <path id="svg_26" d="m61.5,214.5l-1,0c-12.2,0 -22,9.8 -22,22l0,1c0,12.2 9.8,22 22,22l1,0c12.2,0 22,-9.8 22,-22l0,-1c0,-12.2 -9.8,-22 -22,-22z"/>
   <path id="svg_27" d="m597.5,540.5l-49,0c-4.4,0 -8,3.6 -8,8l0,49c0,4.4 3.6,8 8,8l49,0c4.4,0 8,-3.6 8,-8l0,-49c0,-4.4 -3.6,-8 -8,-8z"/>
   <path id="svg_28" d="m345.5,120.5l-49,0c-4.4,0 -8,3.6 -8,8l0,49c0,4.4 3.6,8 8,8l49,0c4.4,0 8,-3.6 8,-8l0,-49c0,-4.4 -3.6,-8 -8,-8z"/>
   <path id="svg_29" d="m597.5,120.5l-49,0c-4.4,0 -8,3.6 -8,8l0,49c0,4.4 3.6,8 8,8l49,0c4.4,0 8,-3.6 8,-8l0,-49c0,-4.4 -3.6,-8 -8,-8z"/>
   <path id="svg_30" d="m405.5,810.5l-1,0c-12.2,0 -22,9.8 -22,22l0,1c0,12.2 9.8,22 22,22l1,0c12.2,0 22,-9.8 22,-22l0,-1c0,-12.2 -9.8,-22 -22,-22z"/>
   <path id="svg_31" d="m513.5,708.5l-49,0c-4.4,0 -8,3.6 -8,8l0,49c0,4.4 3.6,8 8,8l49,0c4.4,0 8,-3.6 8,-8l0,-49c0,-4.4 -3.6,-8 -8,-8z"/>
   <path id="svg_32" d="m345.5,204.5l-49,0c-4.4,0 -8,3.6 -8,8l0,49c0,4.4 3.6,8 8,8l49,0c4.4,0 8,-3.6 8,-8l0,-49c0,-4.4 -3.6,-8 -8,-8z"/>
   <path id="svg_33" d="m177.5,120.5l-49,0c-4.4,0 -8,3.6 -8,8l0,49c0,4.4 3.6,8 8,8l49,0c4.4,0 8,-3.6 8,-8l0,-49c0,-4.4 -3.6,-8 -8,-8z"/>
   <path id="svg_34" d="m429.5,708.5l-49,0c-4.4,0 -8,3.6 -8,8l0,49c0,4.4 3.6,8 8,8l49,0c4.4,0 8,-3.6 8,-8l0,-49c0,-4.4 -3.6,-8 -8,-8z"/>
   <path id="svg_35" d="m261.5,708.5l-49,0c-4.4,0 -8,3.6 -8,8l0,49c0,4.4 3.6,8 8,8l49,0c4.4,0 8,-3.6 8,-8l0,-49c0,-4.4 -3.6,-8 -8,-8z"/>
   <path id="svg_36" d="m429.5,624.5l-49,0c-4.4,0 -8,3.6 -8,8l0,49c0,4.4 3.6,8 8,8l49,0c4.4,0 8,-3.6 8,-8l0,-49c0,-4.4 -3.6,-8 -8,-8z"/>
   <path id="svg_37" d="m345.5,372.5l-49,0c-4.4,0 -8,3.6 -8,8l0,49c0,4.4 3.6,8 8,8l49,0c4.4,0 8,-3.6 8,-8l0,-49c0,-4.4 -3.6,-8 -8,-8z"/>
   <path id="svg_38" d="m345.5,456.5l-49,0c-4.4,0 -8,3.6 -8,8l0,49c0,4.4 3.6,8 8,8l49,0c4.4,0 8,-3.6 8,-8l0,-49c0,-4.4 -3.6,-8 -8,-8z"/>
   <path id="svg_39" d="m345.5,540.5l-49,0c-4.4,0 -8,3.6 -8,8l0,49c0,4.4 3.6,8 8,8l49,0c4.4,0 8,-3.6 8,-8l0,-49c0,-4.4 -3.6,-8 -8,-8z"/>
   <path id="svg_40" d="m345.5,288.5l-49,0c-4.4,0 -8,3.6 -8,8l0,49c0,4.4 3.6,8 8,8l49,0c4.4,0 8,-3.6 8,-8l0,-49c0,-4.4 -3.6,-8 -8,-8z"/>
   <path id="svg_41" d="m237.5,810.5l-1,0c-12.2,0 -22,9.8 -22,22l0,1c0,12.2 9.8,22 22,22l1,0c12.2,0 22,-9.8 22,-22l0,-1c0,-12.2 -9.8,-22 -22,-22z"/>
   <path id="svg_42" d="m261.5,540.5l-49,0c-4.4,0 -8,3.6 -8,8l0,49c0,4.4 3.6,8 8,8l49,0c4.4,0 8,-3.6 8,-8l0,-49c0,-4.4 -3.6,-8 -8,-8z"/>
   <path id="svg_43" d="m345.5,708.5l-49,0c-4.4,0 -8,3.6 -8,8l0,49c0,4.4 3.6,8 8,8l49,0c4.4,0 8,-3.6 8,-8l0,-49c0,-4.4 -3.6,-8 -8,-8z"/>
   <path id="svg_44" d="m429.5,204.5l-49,0c-4.4,0 -8,3.6 -8,8l0,49c0,4.4 3.6,8 8,8l49,0c4.4,0 8,-3.6 8,-8l0,-49c0,-4.4 -3.6,-8 -8,-8z"/>
   <path id="svg_45" d="m429.5,120.5l-49,0c-4.4,0 -8,3.6 -8,8l0,49c0,4.4 3.6,8 8,8l49,0c4.4,0 8,-3.6 8,-8l0,-49c0,-4.4 -3.6,-8 -8,-8z"/>
   <path id="svg_46" d="m429.5,540.5l-49,0c-4.4,0 -8,3.6 -8,8l0,49c0,4.4 3.6,8 8,8l49,0c4.4,0 8,-3.6 8,-8l0,-49c0,-4.4 -3.6,-8 -8,-8z"/>
   <path id="svg_47" d="m177.5,372.5l-49,0c-4.4,0 -8,3.6 -8,8l0,49c0,4.4 3.6,8 8,8l49,0c4.4,0 8,-3.6 8,-8l0,-49c0,-4.4 -3.6,-8 -8,-8z"/>
   <path id="svg_48" d="m261.5,456.5l-49,0c-4.4,0 -8,3.6 -8,8l0,49c0,4.4 3.6,8 8,8l49,0c4.4,0 8,-3.6 8,-8l0,-49c0,-4.4 -3.6,-8 -8,-8z"/>
   <path id="svg_49" d="m489.5,810.5l-1,0c-12.2,0 -22,9.8 -22,22l0,1c0,12.2 9.8,22 22,22l1,0c12.2,0 22,-9.8 22,-22l0,-1c0,-12.2 -9.8,-22 -22,-22z"/>
   <path id="svg_50" d="m345.5,624.5l-49,0c-4.4,0 -8,3.6 -8,8l0,49c0,4.4 3.6,8 8,8l49,0c4.4,0 8,-3.6 8,-8l0,-49c0,-4.4 -3.6,-8 -8,-8z"/>
   <path id="svg_51" d="m429.5,456.5l-49,0c-4.4,0 -8,3.6 -8,8l0,49c0,4.4 3.6,8 8,8l49,0c4.4,0 8,-3.6 8,-8l0,-49c0,-4.4 -3.6,-8 -8,-8z"/>
   <path id="svg_52" d="m429.5,288.5l-49,0c-4.4,0 -8,3.6 -8,8l0,49c0,4.4 3.6,8 8,8l49,0c4.4,0 8,-3.6 8,-8l0,-49c0,-4.4 -3.6,-8 -8,-8z"/>
   <path id="svg_53" d="m177.5,204.5l-49,0c-4.4,0 -8,3.6 -8,8l0,49c0,4.4 3.6,8 8,8l49,0c4.4,0 8,-3.6 8,-8l0,-49c0,-4.4 -3.6,-8 -8,-8z"/>
   <path id="svg_54" d="m177.5,288.5l-49,0c-4.4,0 -8,3.6 -8,8l0,49c0,4.4 3.6,8 8,8l49,0c4.4,0 8,-3.6 8,-8l0,-49c0,-4.4 -3.6,-8 -8,-8z"/>
   <path id="svg_55" d="m429.5,372.5l-49,0c-4.4,0 -8,3.6 -8,8l0,49c0,4.4 3.6,8 8,8l49,0c4.4,0 8,-3.6 8,-8l0,-49c0,-4.4 -3.6,-8 -8,-8z"/>
   <path id="svg_56" d="m261.5,288.5l-49,0c-4.4,0 -8,3.6 -8,8l0,49c0,4.4 3.6,8 8,8l49,0c4.4,0 8,-3.6 8,-8l0,-49c0,-4.4 -3.6,-8 -8,-8z"/>
   <path id="svg_57" d="m765.5,204.5l-49,0c-4.4,0 -8,3.6 -8,8l0,49c0,4.4 3.6,8 8,8l49,0c4.4,0 8,-3.6 8,-8l0,-49c0,-4.4 -3.6,-8 -8,-8z"/>
   <path id="svg_58" d="m488.5,83.5l1,0c12.2,0 22,-9.8 22,-22l0,-1c0,-12.2 -9.8,-22 -22,-22l-1,0c-12.2,0 -22,9.8 -22,22l0,1c0,12.2 9.8,22 22,22z"/>
   <path id="svg_59" d="m833.5,718.5l-1,0c-12.2,0 -22,9.8 -22,22l0,1c0,12.2 9.8,22 22,22l1,0c12.2,0 22,-9.8 22,-22l0,-1c0,-12.2 -9.8,-22 -22,-22z"/>
   <path id="svg_60" d="m261.5,624.5l-49,0c-4.4,0 -8,3.6 -8,8l0,49c0,4.4 3.6,8 8,8l49,0c4.4,0 8,-3.6 8,-8l0,-49c0,-4.4 -3.6,-8 -8,-8z"/>
   <path id="svg_61" d="m765.5,120.5l-49,0c-4.4,0 -8,3.6 -8,8l0,49c0,4.4 3.6,8 8,8l49,0c4.4,0 8,-3.6 8,-8l0,-49c0,-4.4 -3.6,-8 -8,-8z"/>
   <path id="svg_62" d="m765.5,372.5l-49,0c-4.4,0 -8,3.6 -8,8l0,49c0,4.4 3.6,8 8,8l49,0c4.4,0 8,-3.6 8,-8l0,-49c0,-4.4 -3.6,-8 -8,-8z"/>
   <path id="svg_63" d="m765.5,288.5l-49,0c-4.4,0 -8,3.6 -8,8l0,49c0,4.4 3.6,8 8,8l49,0c4.4,0 8,-3.6 8,-8l0,-49c0,-4.4 -3.6,-8 -8,-8z"/>
   <path id="svg_64" d="m320.5,83.5l1,0c12.2,0 22,-9.8 22,-22l0,-1c0,-12.2 -9.8,-22 -22,-22l-1,0c-12.2,0 -22,9.8 -22,22l0,1c0,12.2 9.8,22 22,22z"/>
   <path id="svg_65" d="m765.5,624.5l-49,0c-4.4,0 -8,3.6 -8,8l0,49c0,4.4 3.6,8 8,8l49,0c4.4,0 8,-3.6 8,-8l0,-49c0,-4.4 -3.6,-8 -8,-8z"/>
   <path id="svg_66" d="m765.5,708.5l-49,0c-4.4,0 -8,3.6 -8,8l0,49c0,4.4 3.6,8 8,8l49,0c4.4,0 8,-3.6 8,-8l0,-49c0,-4.4 -3.6,-8 -8,-8z"/>
   <path id="svg_67" d="m404.5,83.5l1,0c12.2,0 22,-9.8 22,-22l0,-1c0,-12.2 -9.8,-22 -22,-22l-1,0c-12.2,0 -22,9.8 -22,22l0,1c0,12.2 9.8,22 22,22z"/>
   <path id="svg_68" d="m765.5,540.5l-49,0c-4.4,0 -8,3.6 -8,8l0,49c0,4.4 3.6,8 8,8l49,0c4.4,0 8,-3.6 8,-8l0,-49c0,-4.4 -3.6,-8 -8,-8z"/>
   <path id="svg_69" d="m765.5,456.5l-49,0c-4.4,0 -8,3.6 -8,8l0,49c0,4.4 3.6,8 8,8l49,0c4.4,0 8,-3.6 8,-8l0,-49c0,-4.4 -3.6,-8 -8,-8z"/>
   <path id="svg_70" d="m833.5,214.5l-1,0c-12.2,0 -22,9.8 -22,22l0,1c0,12.2 9.8,22 22,22l1,0c12.2,0 22,-9.8 22,-22l0,-1c0,-12.2 -9.8,-22 -22,-22z"/>
   <path id="svg_71" d="m740.5,83.5l1,0c12.2,0 22,-9.8 22,-22l0,-1c0,-12.2 -9.8,-22 -22,-22l-1,0c-12.2,0 -22,9.8 -22,22l0,1c0,12.2 9.8,22 22,22z"/>
   <path id="svg_72" d="m833.5,634.5l-1,0c-12.2,0 -22,9.8 -22,22l0,1c0,12.2 9.8,22 22,22l1,0c12.2,0 22,-9.8 22,-22l0,-1c0,-12.2 -9.8,-22 -22,-22z"/>
   <path id="svg_73" d="m833.5,130.5l-1,0c-12.2,0 -22,9.8 -22,22l0,1c0,12.2 9.8,22 22,22l1,0c12.2,0 22,-9.8 22,-22l0,-1c0,-12.2 -9.8,-22 -22,-22z"/>
   <path id="svg_74" d="m876,0l-858,0c-9.9,0 -18,8.1 -18,18l0,858c0,9.9 8.1,18 18,18l858,0c9.9,0 18,-8.1 18,-18l0,-858c0,-9.9 -8.1,-18 -18,-18zm-135,34c14.9,0 27,12.1 27,27s-12.1,27 -27,27s-27,-12.1 -27,-27s12.1,-27 27,-27zm-84,0c14.9,0 27,12.1 27,27s-12.1,27 -27,27s-27,-12.1 -27,-27s12.1,-27 27,-27zm-84,0c14.9,0 27,12.1 27,27s-12.1,27 -27,27s-27,-12.1 -27,-27s12.1,-27 27,-27zm-84,0c14.9,0 27,12.1 27,27s-12.1,27 -27,27s-27,-12.1 -27,-27s12.1,-27 27,-27zm-84,0c14.9,0 27,12.1 27,27s-12.1,27 -27,27s-27,-12.1 -27,-27s12.1,-27 27,-27zm-84,0c14.9,0 27,12.1 27,27s-12.1,27 -27,27s-27,-12.1 -27,-27s12.1,-27 27,-27zm-84,0c14.9,0 27,12.1 27,27s-12.1,27 -27,27s-27,-12.1 -27,-27s12.1,-27 27,-27zm-84,0c14.9,0 27,12.1 27,27s-12.1,27 -27,27s-27,-12.1 -27,-27s12.1,-27 27,-27zm-92,734c-14.9,0 -27,-12.1 -27,-27s12.1,-27 27,-27s27,12.1 27,27s-12.1,27 -27,27zm0,-84c-14.9,0 -27,-12.1 -27,-27s12.1,-27 27,-27s27,12.1 27,27s-12.1,27 -27,27zm0,-84c-14.9,0 -27,-12.1 -27,-27s12.1,-27 27,-27s27,12.1 27,27s-12.1,27 -27,27zm0,-84c-14.9,0 -27,-12.1 -27,-27s12.1,-27 27,-27s27,12.1 27,27s-12.1,27 -27,27zm0,-84c-14.9,0 -27,-12.1 -27,-27s12.1,-27 27,-27s27,12.1 27,27s-12.1,27 -27,27zm0,-84c-14.9,0 -27,-12.1 -27,-27s12.1,-27 27,-27s27,12.1 27,27s-12.1,27 -27,27zm0,-84c-14.9,0 -27,-12.1 -27,-27s12.1,-27 27,-27s27,12.1 27,27s-12.1,27 -27,27zm0,-84c-14.9,0 -27,-12.1 -27,-27s12.1,-27 27,-27s27,12.1 27,27s-12.1,27 -27,27zm92,680c-14.9,0 -27,-12.1 -27,-27s12.1,-27 27,-27s27,12.1 27,27s-12.1,27 -27,27zm36,-91c0,4.4 -3.6,8 -8,8l-56,0c-4.4,0 -8,-3.6 -8,-8l0,-56c0,-4.4 3.6,-8 8,-8l56,0c4.4,0 8,3.6 8,8l0,56zm0,-84c0,4.4 -3.6,8 -8,8l-56,0c-4.4,0 -8,-3.6 -8,-8l0,-56c0,-4.4 3.6,-8 8,-8l56,0c4.4,0 8,3.6 8,8l0,56zm0,-84c0,4.4 -3.6,8 -8,8l-56,0c-4.4,0 -8,-3.6 -8,-8l0,-56c0,-4.4 3.6,-8 8,-8l56,0c4.4,0 8,3.6 8,8l0,56zm0,-84c0,4.4 -3.6,8 -8,8l-56,0c-4.4,0 -8,-3.6 -8,-8l0,-56c0,-4.4 3.6,-8 8,-8l56,0c4.4,0 8,3.6 8,8l0,56zm0,-84c0,4.4 -3.6,8 -8,8l-56,0c-4.4,0 -8,-3.6 -8,-8l0,-56c0,-4.4 3.6,-8 8,-8l56,0c4.4,0 8,3.6 8,8l0,56zm0,-84c0,4.4 -3.6,8 -8,8l-56,0c-4.4,0 -8,-3.6 -8,-8l0,-56c0,-4.4 3.6,-8 8,-8l56,0c4.4,0 8,3.6 8,8l0,56zm0,-84c0,4.4 -3.6,8 -8,8l-56,0c-4.4,0 -8,-3.6 -8,-8l0,-56c0,-4.4 3.6,-8 8,-8l56,0c4.4,0 8,3.6 8,8l0,56zm0,-84c0,4.4 -3.6,8 -8,8l-56,0c-4.4,0 -8,-3.6 -8,-8l0,-56c0,-4.4 3.6,-8 8,-8l56,0c4.4,0 8,3.6 8,8l0,56zm48,679c-14.9,0 -27,-12.1 -27,-27s12.1,-27 27,-27s27,12.1 27,27s-12.1,27 -27,27zm36,-91c0,4.4 -3.6,8 -8,8l-56,0c-4.4,0 -8,-3.6 -8,-8l0,-56c0,-4.4 3.6,-8 8,-8l56,0c4.4,0 8,3.6 8,8l0,56zm0,-84c0,4.4 -3.6,8 -8,8l-56,0c-4.4,0 -8,-3.6 -8,-8l0,-56c0,-4.4 3.6,-8 8,-8l56,0c4.4,0 8,3.6 8,8l0,56zm0,-84c0,4.4 -3.6,8 -8,8l-56,0c-4.4,0 -8,-3.6 -8,-8l0,-56c0,-4.4 3.6,-8 8,-8l56,0c4.4,0 8,3.6 8,8l0,56zm0,-84c0,4.4 -3.6,8 -8,8l-56,0c-4.4,0 -8,-3.6 -8,-8l0,-56c0,-4.4 3.6,-8 8,-8l56,0c4.4,0 8,3.6 8,8l0,56zm0,-84c0,4.4 -3.6,8 -8,8l-56,0c-4.4,0 -8,-3.6 -8,-8l0,-56c0,-4.4 3.6,-8 8,-8l56,0c4.4,0 8,3.6 8,8l0,56zm0,-84c0,4.4 -3.6,8 -8,8l-56,0c-4.4,0 -8,-3.6 -8,-8l0,-56c0,-4.4 3.6,-8 8,-8l56,0c4.4,0 8,3.6 8,8l0,56zm0,-84c0,4.4 -3.6,8 -8,8l-56,0c-4.4,0 -8,-3.6 -8,-8l0,-56c0,-4.4 3.6,-8 8,-8l56,0c4.4,0 8,3.6 8,8l0,56zm0,-84c0,4.4 -3.6,8 -8,8l-56,0c-4.4,0 -8,-3.6 -8,-8l0,-56c0,-4.4 3.6,-8 8,-8l56,0c4.4,0 8,3.6 8,8l0,56zm48,679c-14.9,0 -27,-12.1 -27,-27s12.1,-27 27,-27s27,12.1 27,27s-12.1,27 -27,27zm36,-91c0,4.4 -3.6,8 -8,8l-56,0c-4.4,0 -8,-3.6 -8,-8l0,-56c0,-4.4 3.6,-8 8,-8l56,0c4.4,0 8,3.6 8,8l0,56zm0,-84c0,4.4 -3.6,8 -8,8l-56,0c-4.4,0 -8,-3.6 -8,-8l0,-56c0,-4.4 3.6,-8 8,-8l56,0c4.4,0 8,3.6 8,8l0,56zm0,-84c0,4.4 -3.6,8 -8,8l-56,0c-4.4,0 -8,-3.6 -8,-8l0,-56c0,-4.4 3.6,-8 8,-8l56,0c4.4,0 8,3.6 8,8l0,56zm0,-84c0,4.4 -3.6,8 -8,8l-56,0c-4.4,0 -8,-3.6 -8,-8l0,-56c0,-4.4 3.6,-8 8,-8l56,0c4.4,0 8,3.6 8,8l0,56zm0,-84c0,4.4 -3.6,8 -8,8l-56,0c-4.4,0 -8,-3.6 -8,-8l0,-56c0,-4.4 3.6,-8 8,-8l56,0c4.4,0 8,3.6 8,8l0,56zm0,-84c0,4.4 -3.6,8 -8,8l-56,0c-4.4,0 -8,-3.6 -8,-8l0,-56c0,-4.4 3.6,-8 8,-8l56,0c4.4,0 8,3.6 8,8l0,56zm0,-84c0,4.4 -3.6,8 -8,8l-56,0c-4.4,0 -8,-3.6 -8,-8l0,-56c0,-4.4 3.6,-8 8,-8l56,0c4.4,0 8,3.6 8,8l0,56zm0,-84c0,4.4 -3.6,8 -8,8l-56,0c-4.4,0 -8,-3.6 -8,-8l0,-56c0,-4.4 3.6,-8 8,-8l56,0c4.4,0 8,3.6 8,8l0,56zm48,679c-14.9,0 -27,-12.1 -27,-27s12.1,-27 27,-27s27,12.1 27,27s-12.1,27 -27,27zm36,-91c0,4.4 -3.6,8 -8,8l-56,0c-4.4,0 -8,-3.6 -8,-8l0,-56c0,-4.4 3.6,-8 8,-8l56,0c4.4,0 8,3.6 8,8l0,56zm0,-84c0,4.4 -3.6,8 -8,8l-56,0c-4.4,0 -8,-3.6 -8,-8l0,-56c0,-4.4 3.6,-8 8,-8l56,0c4.4,0 8,3.6 8,8l0,56zm0,-84c0,4.4 -3.6,8 -8,8l-56,0c-4.4,0 -8,-3.6 -8,-8l0,-56c0,-4.4 3.6,-8 8,-8l56,0c4.4,0 8,3.6 8,8l0,56zm0,-84c0,4.4 -3.6,8 -8,8l-56,0c-4.4,0 -8,-3.6 -8,-8l0,-56c0,-4.4 3.6,-8 8,-8l56,0c4.4,0 8,3.6 8,8l0,56zm0,-84c0,4.4 -3.6,8 -8,8l-56,0c-4.4,0 -8,-3.6 -8,-8l0,-56c0,-4.4 3.6,-8 8,-8l56,0c4.4,0 8,3.6 8,8l0,56zm0,-84c0,4.4 -3.6,8 -8,8l-56,0c-4.4,0 -8,-3.6 -8,-8l0,-56c0,-4.4 3.6,-8 8,-8l56,0c4.4,0 8,3.6 8,8l0,56zm0,-84c0,4.4 -3.6,8 -8,8l-56,0c-4.4,0 -8,-3.6 -8,-8l0,-56c0,-4.4 3.6,-8 8,-8l56,0c4.4,0 8,3.6 8,8l0,56zm0,-84c0,4.4 -3.6,8 -8,8l-56,0c-4.4,0 -8,-3.6 -8,-8l0,-56c0,-4.4 3.6,-8 8,-8l56,0c4.4,0 8,3.6 8,8l0,56zm48,679c-14.9,0 -27,-12.1 -27,-27s12.1,-27 27,-27s27,12.1 27,27s-12.1,27 -27,27zm36,-91c0,4.4 -3.6,8 -8,8l-56,0c-4.4,0 -8,-3.6 -8,-8l0,-56c0,-4.4 3.6,-8 8,-8l56,0c4.4,0 8,3.6 8,8l0,56zm0,-84c0,4.4 -3.6,8 -8,8l-56,0c-4.4,0 -8,-3.6 -8,-8l0,-56c0,-4.4 3.6,-8 8,-8l56,0c4.4,0 8,3.6 8,8l0,56zm0,-84c0,4.4 -3.6,8 -8,8l-56,0c-4.4,0 -8,-3.6 -8,-8l0,-56c0,-4.4 3.6,-8 8,-8l56,0c4.4,0 8,3.6 8,8l0,56zm0,-84c0,4.4 -3.6,8 -8,8l-56,0c-4.4,0 -8,-3.6 -8,-8l0,-56c0,-4.4 3.6,-8 8,-8l56,0c4.4,0 8,3.6 8,8l0,56zm0,-84c0,4.4 -3.6,8 -8,8l-56,0c-4.4,0 -8,-3.6 -8,-8l0,-56c0,-4.4 3.6,-8 8,-8l56,0c4.4,0 8,3.6 8,8l0,56zm0,-84c0,4.4 -3.6,8 -8,8l-56,0c-4.4,0 -8,-3.6 -8,-8l0,-56c0,-4.4 3.6,-8 8,-8l56,0c4.4,0 8,3.6 8,8l0,56zm0,-84c0,4.4 -3.6,8 -8,8l-56,0c-4.4,0 -8,-3.6 -8,-8l0,-56c0,-4.4 3.6,-8 8,-8l56,0c4.4,0 8,3.6 8,8l0,56zm0,-84c0,4.4 -3.6,8 -8,8l-56,0c-4.4,0 -8,-3.6 -8,-8l0,-56c0,-4.4 3.6,-8 8,-8l56,0c4.4,0 8,3.6 8,8l0,56zm48,679c-14.9,0 -27,-12.1 -27,-27s12.1,-27 27,-27s27,12.1 27,27s-12.1,27 -27,27zm36,-91c0,4.4 -3.6,8 -8,8l-56,0c-4.4,0 -8,-3.6 -8,-8l0,-56c0,-4.4 3.6,-8 8,-8l56,0c4.4,0 8,3.6 8,8l0,56zm0,-84c0,4.4 -3.6,8 -8,8l-56,0c-4.4,0 -8,-3.6 -8,-8l0,-56c0,-4.4 3.6,-8 8,-8l56,0c4.4,0 8,3.6 8,8l0,56zm0,-84c0,4.4 -3.6,8 -8,8l-56,0c-4.4,0 -8,-3.6 -8,-8l0,-56c0,-4.4 3.6,-8 8,-8l56,0c4.4,0 8,3.6 8,8l0,56zm0,-84c0,4.4 -3.6,8 -8,8l-56,0c-4.4,0 -8,-3.6 -8,-8l0,-56c0,-4.4 3.6,-8 8,-8l56,0c4.4,0 8,3.6 8,8l0,56zm0,-84c0,4.4 -3.6,8 -8,8l-56,0c-4.4,0 -8,-3.6 -8,-8l0,-56c0,-4.4 3.6,-8 8,-8l56,0c4.4,0 8,3.6 8,8l0,56zm0,-84c0,4.4 -3.6,8 -8,8l-56,0c-4.4,0 -8,-3.6 -8,-8l0,-56c0,-4.4 3.6,-8 8,-8l56,0c4.4,0 8,3.6 8,8l0,56zm0,-84c0,4.4 -3.6,8 -8,8l-56,0c-4.4,0 -8,-3.6 -8,-8l0,-56c0,-4.4 3.6,-8 8,-8l56,0c4.4,0 8,3.6 8,8l0,56zm0,-84c0,4.4 -3.6,8 -8,8l-56,0c-4.4,0 -8,-3.6 -8,-8l0,-56c0,-4.4 3.6,-8 8,-8l56,0c4.4,0 8,3.6 8,8l0,56zm48,679c-14.9,0 -27,-12.1 -27,-27s12.1,-27 27,-27s27,12.1 27,27s-12.1,27 -27,27zm36,-91c0,4.4 -3.6,8 -8,8l-56,0c-4.4,0 -8,-3.6 -8,-8l0,-56c0,-4.4 3.6,-8 8,-8l56,0c4.4,0 8,3.6 8,8l0,56zm0,-84c0,4.4 -3.6,8 -8,8l-56,0c-4.4,0 -8,-3.6 -8,-8l0,-56c0,-4.4 3.6,-8 8,-8l56,0c4.4,0 8,3.6 8,8l0,56zm0,-84c0,4.4 -3.6,8 -8,8l-56,0c-4.4,0 -8,-3.6 -8,-8l0,-56c0,-4.4 3.6,-8 8,-8l56,0c4.4,0 8,3.6 8,8l0,56zm0,-84c0,4.4 -3.6,8 -8,8l-56,0c-4.4,0 -8,-3.6 -8,-8l0,-56c0,-4.4 3.6,-8 8,-8l56,0c4.4,0 8,3.6 8,8l0,56zm0,-84c0,4.4 -3.6,8 -8,8l-56,0c-4.4,0 -8,-3.6 -8,-8l0,-56c0,-4.4 3.6,-8 8,-8l56,0c4.4,0 8,3.6 8,8l0,56zm0,-84c0,4.4 -3.6,8 -8,8l-56,0c-4.4,0 -8,-3.6 -8,-8l0,-56c0,-4.4 3.6,-8 8,-8l56,0c4.4,0 8,3.6 8,8l0,56zm0,-84c0,4.4 -3.6,8 -8,8l-56,0c-4.4,0 -8,-3.6 -8,-8l0,-56c0,-4.4 3.6,-8 8,-8l56,0c4.4,0 8,3.6 8,8l0,56zm0,-84c0,4.4 -3.6,8 -8,8l-56,0c-4.4,0 -8,-3.6 -8,-8l0,-56c0,-4.4 3.6,-8 8,-8l56,0c4.4,0 8,3.6 8,8l0,56zm48,679c-14.9,0 -27,-12.1 -27,-27s12.1,-27 27,-27s27,12.1 27,27s-12.1,27 -27,27zm36,-91c0,4.4 -3.6,8 -8,8l-56,0c-4.4,0 -8,-3.6 -8,-8l0,-56c0,-4.4 3.6,-8 8,-8l56,0c4.4,0 8,3.6 8,8l0,56zm0,-84c0,4.4 -3.6,8 -8,8l-56,0c-4.4,0 -8,-3.6 -8,-8l0,-56c0,-4.4 3.6,-8 8,-8l56,0c4.4,0 8,3.6 8,8l0,56zm0,-84c0,4.4 -3.6,8 -8,8l-56,0c-4.4,0 -8,-3.6 -8,-8l0,-56c0,-4.4 3.6,-8 8,-8l56,0c4.4,0 8,3.6 8,8l0,56zm0,-84c0,4.4 -3.6,8 -8,8l-56,0c-4.4,0 -8,-3.6 -8,-8l0,-56c0,-4.4 3.6,-8 8,-8l56,0c4.4,0 8,3.6 8,8l0,56zm0,-84c0,4.4 -3.6,8 -8,8l-56,0c-4.4,0 -8,-3.6 -8,-8l0,-56c0,-4.4 3.6,-8 8,-8l56,0c4.4,0 8,3.6 8,8l0,56zm0,-84c0,4.4 -3.6,8 -8,8l-56,0c-4.4,0 -8,-3.6 -8,-8l0,-56c0,-4.4 3.6,-8 8,-8l56,0c4.4,0 8,3.6 8,8l0,56zm0,-84c0,4.4 -3.6,8 -8,8l-56,0c-4.4,0 -8,-3.6 -8,-8l0,-56c0,-4.4 3.6,-8 8,-8l56,0c4.4,0 8,3.6 8,8l0,56zm0,-84c0,4.4 -3.6,8 -8,8l-56,0c-4.4,0 -8,-3.6 -8,-8l0,-56c0,-4.4 3.6,-8 8,-8l56,0c4.4,0 8,3.6 8,8l0,56zm56,587c-14.9,0 -27,-12.1 -27,-27s12.1,-27 27,-27s27,12.1 27,27s-12.1,27 -27,27zm0,-84c-14.9,0 -27,-12.1 -27,-27s12.1,-27 27,-27s27,12.1 27,27s-12.1,27 -27,27zm0,-84c-14.9,0 -27,-12.1 -27,-27s12.1,-27 27,-27s27,12.1 27,27s-12.1,27 -27,27zm0,-84c-14.9,0 -27,-12.1 -27,-27s12.1,-27 27,-27s27,12.1 27,27s-12.1,27 -27,27zm0,-84c-14.9,0 -27,-12.1 -27,-27s12.1,-27 27,-27s27,12.1 27,27s-12.1,27 -27,27zm0,-84c-14.9,0 -27,-12.1 -27,-27s12.1,-27 27,-27s27,12.1 27,27s-12.1,27 -27,27zm0,-84c-14.9,0 -27,-12.1 -27,-27s12.1,-27 27,-27s27,12.1 27,27s-12.1,27 -27,27zm0,-84c-14.9,0 -27,-12.1 -27,-27s12.1,-27 27,-27s27,12.1 27,27s-12.1,27 -27,27z"/>
   <path id="svg_75" d="m833.5,298.5l-1,0c-12.2,0 -22,9.8 -22,22l0,1c0,12.2 9.8,22 22,22l1,0c12.2,0 22,-9.8 22,-22l0,-1c0,-12.2 -9.8,-22 -22,-22z"/>
   <path id="svg_76" d="m261.5,204.5l-49,0c-4.4,0 -8,3.6 -8,8l0,49c0,4.4 3.6,8 8,8l49,0c4.4,0 8,-3.6 8,-8l0,-49c0,-4.4 -3.6,-8 -8,-8z"/>
   <path id="svg_77" d="m833.5,550.5l-1,0c-12.2,0 -22,9.8 -22,22l0,1c0,12.2 9.8,22 22,22l1,0c12.2,0 22,-9.8 22,-22l0,-1c0,-12.2 -9.8,-22 -22,-22z"/>
   <path id="svg_78" d="m572.5,83.5l1,0c12.2,0 22,-9.8 22,-22l0,-1c0,-12.2 -9.8,-22 -22,-22l-1,0c-12.2,0 -22,9.8 -22,22l0,1c0,12.2 9.8,22 22,22z"/>
   <path id="svg_79" d="m833.5,382.5l-1,0c-12.2,0 -22,9.8 -22,22l0,1c0,12.2 9.8,22 22,22l1,0c12.2,0 22,-9.8 22,-22l0,-1c0,-12.2 -9.8,-22 -22,-22z"/>
   <path id="svg_80" d="m833.5,466.5l-1,0c-12.2,0 -22,9.8 -22,22l0,1c0,12.2 9.8,22 22,22l1,0c12.2,0 22,-9.8 22,-22l0,-1c0,-12.2 -9.8,-22 -22,-22z"/>
   <path id="svg_81" d="m656.5,83.5l1,0c12.2,0 22,-9.8 22,-22l0,-1c0,-12.2 -9.8,-22 -22,-22l-1,0c-12.2,0 -22,9.8 -22,22l0,1c0,12.2 9.8,22 22,22z"/>
   <path id="svg_82" d="m657.5,810.5l-1,0c-12.2,0 -22,9.8 -22,22l0,1c0,12.2 9.8,22 22,22l1,0c12.2,0 22,-9.8 22,-22l0,-1c0,-12.2 -9.8,-22 -22,-22z"/>
   <path id="svg_83" d="m681.5,456.5l-49,0c-4.4,0 -8,3.6 -8,8l0,49c0,4.4 3.6,8 8,8l49,0c4.4,0 8,-3.6 8,-8l0,-49c0,-4.4 -3.6,-8 -8,-8z"/>
   <path id="svg_84" d="m681.5,540.5l-49,0c-4.4,0 -8,3.6 -8,8l0,49c0,4.4 3.6,8 8,8l49,0c4.4,0 8,-3.6 8,-8l0,-49c0,-4.4 -3.6,-8 -8,-8z"/>
   <path id="svg_85" d="m61.5,718.5l-1,0c-12.2,0 -22,9.8 -22,22l0,1c0,12.2 9.8,22 22,22l1,0c12.2,0 22,-9.8 22,-22l0,-1c0,-12.2 -9.8,-22 -22,-22z"/>
   <path id="svg_86" d="m681.5,372.5l-49,0c-4.4,0 -8,3.6 -8,8l0,49c0,4.4 3.6,8 8,8l49,0c4.4,0 8,-3.6 8,-8l0,-49c0,-4.4 -3.6,-8 -8,-8z"/>
   <path id="svg_87" d="m152.5,83.5l1,0c12.2,0 22,-9.8 22,-22l0,-1c0,-12.2 -9.8,-22 -22,-22l-1,0c-12.2,0 -22,9.8 -22,22l0,1c0,12.2 9.8,22 22,22z"/>
   <path id="svg_88" d="m681.5,624.5l-49,0c-4.4,0 -8,3.6 -8,8l0,49c0,4.4 3.6,8 8,8l49,0c4.4,0 8,-3.6 8,-8l0,-49c0,-4.4 -3.6,-8 -8,-8z"/>
   <path id="svg_89" d="m61.5,466.5l-1,0c-12.2,0 -22,9.8 -22,22l0,1c0,12.2 9.8,22 22,22l1,0c12.2,0 22,-9.8 22,-22l0,-1c0,-12.2 -9.8,-22 -22,-22z"/>
   <path id="svg_90" d="m681.5,708.5l-49,0c-4.4,0 -8,3.6 -8,8l0,49c0,4.4 3.6,8 8,8l49,0c4.4,0 8,-3.6 8,-8l0,-49c0,-4.4 -3.6,-8 -8,-8z"/>
   <path id="svg_91" d="m61.5,634.5l-1,0c-12.2,0 -22,9.8 -22,22l0,1c0,12.2 9.8,22 22,22l1,0c12.2,0 22,-9.8 22,-22l0,-1c0,-12.2 -9.8,-22 -22,-22z"/>
   <path id="svg_92" d="m681.5,288.5l-49,0c-4.4,0 -8,3.6 -8,8l0,49c0,4.4 3.6,8 8,8l49,0c4.4,0 8,-3.6 8,-8l0,-49c0,-4.4 -3.6,-8 -8,-8z"/>
   <path id="svg_93" d="m61.5,550.5l-1,0c-12.2,0 -22,9.8 -22,22l0,1c0,12.2 9.8,22 22,22l1,0c12.2,0 22,-9.8 22,-22l0,-1c0,-12.2 -9.8,-22 -22,-22z"/>
   <path id="svg_94" d="m741.5,810.5l-1,0c-12.2,0 -22,9.8 -22,22l0,1c0,12.2 9.8,22 22,22l1,0c12.2,0 22,-9.8 22,-22l0,-1c0,-12.2 -9.8,-22 -22,-22z"/>
   <path id="svg_95" d="m681.5,120.5l-49,0c-4.4,0 -8,3.6 -8,8l0,49c0,4.4 3.6,8 8,8l49,0c4.4,0 8,-3.6 8,-8l0,-49c0,-4.4 -3.6,-8 -8,-8z"/>
   <path id="svg_96" d="m261.5,120.5l-49,0c-4.4,0 -8,3.6 -8,8l0,49c0,4.4 3.6,8 8,8l49,0c4.4,0 8,-3.6 8,-8l0,-49c0,-4.4 -3.6,-8 -8,-8z"/>
   <path id="svg_97" d="m236.5,83.5l1,0c12.2,0 22,-9.8 22,-22l0,-1c0,-12.2 -9.8,-22 -22,-22l-1,0c-12.2,0 -22,9.8 -22,22l0,1c0,12.2 9.8,22 22,22z"/>
   <path id="svg_98" d="m681.5,204.5l-49,0c-4.4,0 -8,3.6 -8,8l0,49c0,4.4 3.6,8 8,8l49,0c4.4,0 8,-3.6 8,-8l0,-49c0,-4.4 -3.6,-8 -8,-8z"/>
  </g>
 </g>
</svg>