<svg width="894" height="894" xmlns="http://www.w3.org/2000/svg" version="1.1" xml:space="preserve">
 <desc>Copyright (c) 2022 Elycts Shaders</desc>

 <title>Mask_LaunchpadPro</title>
 <g>
  <title>Layer 1</title>
  <path d="m153.5,810.5l-1,0c-12.2,0 -22,9.8 -22,22l0,1c0,12.2 9.8,22 22,22l1,0c12.2,0 22,-9.8 22,-22l0,-1c0,-12.2 -9.8,-22 -22,-22z" id="svg_7"/>
  <path d="m61.5,298.5l-1,0c-12.2,0 -22,9.8 -22,22l0,1c0,12.2 9.8,22 22,22l1,0c12.2,0 22,-9.8 22,-22l0,-1c0,-12.2 -9.8,-22 -22,-22z" id="svg_15"/>
  <path d="m61.5,382.5l-1,0c-12.2,0 -22,9.8 -22,22l0,1c0,12.2 9.8,22 22,22l1,0c12.2,0 22,-9.8 22,-22l0,-1c0,-12.2 -9.8,-22 -22,-22z" id="svg_19"/>
  <path d="m321.5,810.5l-1,0c-12.2,0 -22,9.8 -22,22l0,1c0,12.2 9.8,22 22,22l1,0c12.2,0 22,-9.8 22,-22l0,-1c0,-12.2 -9.8,-22 -22,-22z" id="svg_20"/>
  <path d="m573.5,810.5l-1,0c-12.2,0 -22,9.8 -22,22l0,1c0,12.2 9.8,22 22,22l1,0c12.2,0 22,-9.8 22,-22l0,-1c0,-12.2 -9.8,-22 -22,-22z" id="svg_21"/>
  <path d="m61.5,130.5l-1,0c-12.2,0 -22,9.8 -22,22l0,1c0,12.2 9.8,22 22,22l1,0c12.2,0 22,-9.8 22,-22l0,-1c0,-12.2 -9.8,-22 -22,-22z" id="svg_25"/>
  <path d="m61.5,214.5l-1,0c-12.2,0 -22,9.8 -22,22l0,1c0,12.2 9.8,22 22,22l1,0c12.2,0 22,-9.8 22,-22l0,-1c0,-12.2 -9.8,-22 -22,-22z" id="svg_26"/>
  <path d="m405.5,810.5l-1,0c-12.2,0 -22,9.8 -22,22l0,1c0,12.2 9.8,22 22,22l1,0c12.2,0 22,-9.8 22,-22l0,-1c0,-12.2 -9.8,-22 -22,-22z" id="svg_30"/>
  <path d="m237.5,810.5l-1,0c-12.2,0 -22,9.8 -22,22l0,1c0,12.2 9.8,22 22,22l1,0c12.2,0 22,-9.8 22,-22l0,-1c0,-12.2 -9.8,-22 -22,-22z" id="svg_41"/>
  <path d="m489.5,810.5l-1,0c-12.2,0 -22,9.8 -22,22l0,1c0,12.2 9.8,22 22,22l1,0c12.2,0 22,-9.8 22,-22l0,-1c0,-12.2 -9.8,-22 -22,-22z" id="svg_49"/>
  <path d="m488.5,83.5l1,0c12.2,0 22,-9.8 22,-22l0,-1c0,-12.2 -9.8,-22 -22,-22l-1,0c-12.2,0 -22,9.8 -22,22l0,1c0,12.2 9.8,22 22,22z" id="svg_58"/>
  <path d="m833.5,718.5l-1,0c-12.2,0 -22,9.8 -22,22l0,1c0,12.2 9.8,22 22,22l1,0c12.2,0 22,-9.8 22,-22l0,-1c0,-12.2 -9.8,-22 -22,-22z" id="svg_59"/>
  <path d="m320.5,83.5l1,0c12.2,0 22,-9.8 22,-22l0,-1c0,-12.2 -9.8,-22 -22,-22l-1,0c-12.2,0 -22,9.8 -22,22l0,1c0,12.2 9.8,22 22,22z" id="svg_64"/>
  <path d="m404.5,83.5l1,0c12.2,0 22,-9.8 22,-22l0,-1c0,-12.2 -9.8,-22 -22,-22l-1,0c-12.2,0 -22,9.8 -22,22l0,1c0,12.2 9.8,22 22,22z" id="svg_67"/>
  <path d="m833.5,214.5l-1,0c-12.2,0 -22,9.8 -22,22l0,1c0,12.2 9.8,22 22,22l1,0c12.2,0 22,-9.8 22,-22l0,-1c0,-12.2 -9.8,-22 -22,-22z" id="svg_70"/>
  <path d="m740.5,83.5l1,0c12.2,0 22,-9.8 22,-22l0,-1c0,-12.2 -9.8,-22 -22,-22l-1,0c-12.2,0 -22,9.8 -22,22l0,1c0,12.2 9.8,22 22,22z" id="svg_71"/>
  <path d="m833.5,634.5l-1,0c-12.2,0 -22,9.8 -22,22l0,1c0,12.2 9.8,22 22,22l1,0c12.2,0 22,-9.8 22,-22l0,-1c0,-12.2 -9.8,-22 -22,-22z" id="svg_72"/>
  <path d="m833.5,130.5l-1,0c-12.2,0 -22,9.8 -22,22l0,1c0,12.2 9.8,22 22,22l1,0c12.2,0 22,-9.8 22,-22l0,-1c0,-12.2 -9.8,-22 -22,-22z" id="svg_73"/>
  <path d="m876,0l-858,0c-9.9,0 -18,8.1 -18,18l0,858c0,9.9 8.1,18 18,18l858,0c9.9,0 18,-8.1 18,-18l0,-858c0,-9.9 -8.1,-18 -18,-18zm-135,34c14.9,0 27,12.1 27,27s-12.1,27 -27,27s-27,-12.1 -27,-27s12.1,-27 27,-27zm-84,0c14.9,0 27,12.1 27,27s-12.1,27 -27,27s-27,-12.1 -27,-27s12.1,-27 27,-27zm-84,0c14.9,0 27,12.1 27,27s-12.1,27 -27,27s-27,-12.1 -27,-27s12.1,-27 27,-27zm-84,0c14.9,0 27,12.1 27,27s-12.1,27 -27,27s-27,-12.1 -27,-27s12.1,-27 27,-27zm-84,0c14.9,0 27,12.1 27,27s-12.1,27 -27,27s-27,-12.1 -27,-27s12.1,-27 27,-27zm-84,0c14.9,0 27,12.1 27,27s-12.1,27 -27,27s-27,-12.1 -27,-27s12.1,-27 27,-27zm-84,0c14.9,0 27,12.1 27,27s-12.1,27 -27,27s-27,-12.1 -27,-27s12.1,-27 27,-27zm-84,0c14.9,0 27,12.1 27,27s-12.1,27 -27,27s-27,-12.1 -27,-27s12.1,-27 27,-27zm-92,734c-14.9,0 -27,-12.1 -27,-27s12.1,-27 27,-27s27,12.1 27,27s-12.1,27 -27,27zm0,-84c-14.9,0 -27,-12.1 -27,-27s12.1,-27 27,-27s27,12.1 27,27s-12.1,27 -27,27zm0,-84c-14.9,0 -27,-12.1 -27,-27s12.1,-27 27,-27s27,12.1 27,27s-12.1,27 -27,27zm0,-84c-14.9,0 -27,-12.1 -27,-27s12.1,-27 27,-27s27,12.1 27,27s-12.1,27 -27,27zm0,-84c-14.9,0 -27,-12.1 -27,-27s12.1,-27 27,-27s27,12.1 27,27s-12.1,27 -27,27zm0,-84c-14.9,0 -27,-12.1 -27,-27s12.1,-27 27,-27s27,12.1 27,27s-12.1,27 -27,27zm0,-84c-14.9,0 -27,-12.1 -27,-27s12.1,-27 27,-27s27,12.1 27,27s-12.1,27 -27,27zm0,-84c-14.9,0 -27,-12.1 -27,-27s12.1,-27 27,-27s27,12.1 27,27s-12.1,27 -27,27zm92,680c-14.9,0 -27,-12.1 -27,-27s12.1,-27 27,-27s27,12.1 27,27s-12.1,27 -27,27zm36,-91c0,4.4 -3.6,8 -8,8l-56,0c-4.4,0 -8,-3.6 -8,-8l0,-56c0,-4.4 3.6,-8 8,-8l56,0c4.4,0 8,3.6 8,8l0,56zm0,-84c0,4.4 -3.6,8 -8,8l-56,0c-4.4,0 -8,-3.6 -8,-8l0,-56c0,-4.4 3.6,-8 8,-8l56,0c4.4,0 8,3.6 8,8l0,56zm0,-84c0,4.4 -3.6,8 -8,8l-56,0c-4.4,0 -8,-3.6 -8,-8l0,-56c0,-4.4 3.6,-8 8,-8l56,0c4.4,0 8,3.6 8,8l0,56zm0,-84c0,4.4 -3.6,8 -8,8l-56,0c-4.4,0 -8,-3.6 -8,-8l0,-56c0,-4.4 3.6,-8 8,-8l56,0c4.4,0 8,3.6 8,8l0,56zm0,-84c0,4.4 -3.6,8 -8,8l-56,0c-4.4,0 -8,-3.6 -8,-8l0,-56c0,-4.4 3.6,-8 8,-8l56,0c4.4,0 8,3.6 8,8l0,56zm0,-84c0,4.4 -3.6,8 -8,8l-56,0c-4.4,0 -8,-3.6 -8,-8l0,-56c0,-4.4 3.6,-8 8,-8l56,0c4.4,0 8,3.6 8,8l0,56zm0,-84c0,4.4 -3.6,8 -8,8l-56,0c-4.4,0 -8,-3.6 -8,-8l0,-56c0,-4.4 3.6,-8 8,-8l56,0c4.4,0 8,3.6 8,8l0,56zm0,-84c0,4.4 -3.6,8 -8,8l-56,0c-4.4,0 -8,-3.6 -8,-8l0,-56c0,-4.4 3.6,-8 8,-8l56,0c4.4,0 8,3.6 8,8l0,56zm48,679c-14.9,0 -27,-12.1 -27,-27s12.1,-27 27,-27s27,12.1 27,27s-12.1,27 -27,27zm36,-91c0,4.4 -3.6,8 -8,8l-56,0c-4.4,0 -8,-3.6 -8,-8l0,-56c0,-4.4 3.6,-8 8,-8l56,0c4.4,0 8,3.6 8,8l0,56zm0,-84c0,4.4 -3.6,8 -8,8l-56,0c-4.4,0 -8,-3.6 -8,-8l0,-56c0,-4.4 3.6,-8 8,-8l56,0c4.4,0 8,3.6 8,8l0,56zm0,-84c0,4.4 -3.6,8 -8,8l-56,0c-4.4,0 -8,-3.6 -8,-8l0,-56c0,-4.4 3.6,-8 8,-8l56,0c4.4,0 8,3.6 8,8l0,56zm0,-84c0,4.4 -3.6,8 -8,8l-56,0c-4.4,0 -8,-3.6 -8,-8l0,-56c0,-4.4 3.6,-8 8,-8l56,0c4.4,0 8,3.6 8,8l0,56zm0,-84c0,4.4 -3.6,8 -8,8l-56,0c-4.4,0 -8,-3.6 -8,-8l0,-56c0,-4.4 3.6,-8 8,-8l56,0c4.4,0 8,3.6 8,8l0,56zm0,-84c0,4.4 -3.6,8 -8,8l-56,0c-4.4,0 -8,-3.6 -8,-8l0,-56c0,-4.4 3.6,-8 8,-8l56,0c4.4,0 8,3.6 8,8l0,56zm0,-84c0,4.4 -3.6,8 -8,8l-56,0c-4.4,0 -8,-3.6 -8,-8l0,-56c0,-4.4 3.6,-8 8,-8l56,0c4.4,0 8,3.6 8,8l0,56zm0,-84c0,4.4 -3.6,8 -8,8l-56,0c-4.4,0 -8,-3.6 -8,-8l0,-56c0,-4.4 3.6,-8 8,-8l56,0c4.4,0 8,3.6 8,8l0,56zm48,679c-14.9,0 -27,-12.1 -27,-27s12.1,-27 27,-27s27,12.1 27,27s-12.1,27 -27,27zm36,-91c0,4.4 -3.6,8 -8,8l-56,0c-4.4,0 -8,-3.6 -8,-8l0,-56c0,-4.4 3.6,-8 8,-8l56,0c4.4,0 8,3.6 8,8l0,56zm0,-84c0,4.4 -3.6,8 -8,8l-56,0c-4.4,0 -8,-3.6 -8,-8l0,-56c0,-4.4 3.6,-8 8,-8l56,0c4.4,0 8,3.6 8,8l0,56zm0,-84c0,4.4 -3.6,8 -8,8l-56,0c-4.4,0 -8,-3.6 -8,-8l0,-56c0,-4.4 3.6,-8 8,-8l56,0c4.4,0 8,3.6 8,8l0,56zm0,-84c0,4.4 -3.6,8 -8,8l-56,0c-4.4,0 -8,-3.6 -8,-8l0,-56c0,-4.4 3.6,-8 8,-8l56,0c4.4,0 8,3.6 8,8l0,56zm0,-84c0,4.4 -3.6,8 -8,8l-56,0c-4.4,0 -8,-3.6 -8,-8l0,-56c0,-4.4 3.6,-8 8,-8l56,0c4.4,0 8,3.6 8,8l0,56zm0,-84c0,4.4 -3.6,8 -8,8l-56,0c-4.4,0 -8,-3.6 -8,-8l0,-56c0,-4.4 3.6,-8 8,-8l56,0c4.4,0 8,3.6 8,8l0,56zm0,-84c0,4.4 -3.6,8 -8,8l-56,0c-4.4,0 -8,-3.6 -8,-8l0,-56c0,-4.4 3.6,-8 8,-8l56,0c4.4,0 8,3.6 8,8l0,56zm0,-84c0,4.4 -3.6,8 -8,8l-56,0c-4.4,0 -8,-3.6 -8,-8l0,-56c0,-4.4 3.6,-8 8,-8l56,0c4.4,0 8,3.6 8,8l0,56zm48,679c-14.9,0 -27,-12.1 -27,-27s12.1,-27 27,-27s27,12.1 27,27s-12.1,27 -27,27zm36,-91c0,4.4 -3.6,8 -8,8l-56,0c-4.4,0 -8,-3.6 -8,-8l0,-56c0,-4.4 3.6,-8 8,-8l56,0c4.4,0 8,3.6 8,8l0,56zm0,-84c0,4.4 -3.6,8 -8,8l-56,0c-4.4,0 -8,-3.6 -8,-8l0,-56c0,-4.4 3.6,-8 8,-8l56,0c4.4,0 8,3.6 8,8l0,56zm0,-84c0,4.4 -3.6,8 -8,8l-56,0c-4.4,0 -8,-3.6 -8,-8l0,-56c0,-4.4 3.6,-8 8,-8l56,0c4.4,0 8,3.6 8,8l0,56zm0,-84c0,4.4 -3.6,8 -8,8l-56,0c-4.4,0 -8,-3.6 -8,-8l0,-56c0,-4.4 3.6,-8 8,-8l56,0c4.4,0 8,3.6 8,8l0,56zm0,-84c0,4.4 -3.6,8 -8,8l-56,0c-4.4,0 -8,-3.6 -8,-8l0,-56c0,-4.4 3.6,-8 8,-8l56,0c4.4,0 8,3.6 8,8l0,56zm0,-84c0,4.4 -3.6,8 -8,8l-56,0c-4.4,0 -8,-3.6 -8,-8l0,-56c0,-4.4 3.6,-8 8,-8l56,0c4.4,0 8,3.6 8,8l0,56zm0,-84c0,4.4 -3.6,8 -8,8l-56,0c-4.4,0 -8,-3.6 -8,-8l0,-56c0,-4.4 3.6,-8 8,-8l56,0c4.4,0 8,3.6 8,8l0,56zm0,-84c0,4.4 -3.6,8 -8,8l-56,0c-4.4,0 -8,-3.6 -8,-8l0,-56c0,-4.4 3.6,-8 8,-8l56,0c4.4,0 8,3.6 8,8l0,56zm48,679c-14.9,0 -27,-12.1 -27,-27s12.1,-27 27,-27s27,12.1 27,27s-12.1,27 -27,27zm36,-91c0,4.4 -3.6,8 -8,8l-56,0c-4.4,0 -8,-3.6 -8,-8l0,-56c0,-4.4 3.6,-8 8,-8l56,0c4.4,0 8,3.6 8,8l0,56zm0,-84c0,4.4 -3.6,8 -8,8l-56,0c-4.4,0 -8,-3.6 -8,-8l0,-56c0,-4.4 3.6,-8 8,-8l56,0c4.4,0 8,3.6 8,8l0,56zm0,-84c0,4.4 -3.6,8 -8,8l-56,0c-4.4,0 -8,-3.6 -8,-8l0,-56c0,-4.4 3.6,-8 8,-8l56,0c4.4,0 8,3.6 8,8l0,56zm0,-84c0,4.4 -3.6,8 -8,8l-56,0c-4.4,0 -8,-3.6 -8,-8l0,-56c0,-4.4 3.6,-8 8,-8l56,0c4.4,0 8,3.6 8,8l0,56zm0,-84c0,4.4 -3.6,8 -8,8l-56,0c-4.4,0 -8,-3.6 -8,-8l0,-56c0,-4.4 3.6,-8 8,-8l56,0c4.4,0 8,3.6 8,8l0,56zm0,-84c0,4.4 -3.6,8 -8,8l-56,0c-4.4,0 -8,-3.6 -8,-8l0,-56c0,-4.4 3.6,-8 8,-8l56,0c4.4,0 8,3.6 8,8l0,56zm0,-84c0,4.4 -3.6,8 -8,8l-56,0c-4.4,0 -8,-3.6 -8,-8l0,-56c0,-4.4 3.6,-8 8,-8l56,0c4.4,0 8,3.6 8,8l0,56zm0,-84c0,4.4 -3.6,8 -8,8l-56,0c-4.4,0 -8,-3.6 -8,-8l0,-56c0,-4.4 3.6,-8 8,-8l56,0c4.4,0 8,3.6 8,8l0,56zm48,679c-14.9,0 -27,-12.1 -27,-27s12.1,-27 27,-27s27,12.1 27,27s-12.1,27 -27,27zm36,-91c0,4.4 -3.6,8 -8,8l-56,0c-4.4,0 -8,-3.6 -8,-8l0,-56c0,-4.4 3.6,-8 8,-8l56,0c4.4,0 8,3.6 8,8l0,56zm0,-84c0,4.4 -3.6,8 -8,8l-56,0c-4.4,0 -8,-3.6 -8,-8l0,-56c0,-4.4 3.6,-8 8,-8l56,0c4.4,0 8,3.6 8,8l0,56zm0,-84c0,4.4 -3.6,8 -8,8l-56,0c-4.4,0 -8,-3.6 -8,-8l0,-56c0,-4.4 3.6,-8 8,-8l56,0c4.4,0 8,3.6 8,8l0,56zm0,-84c0,4.4 -3.6,8 -8,8l-56,0c-4.4,0 -8,-3.6 -8,-8l0,-56c0,-4.4 3.6,-8 8,-8l56,0c4.4,0 8,3.6 8,8l0,56zm0,-84c0,4.4 -3.6,8 -8,8l-56,0c-4.4,0 -8,-3.6 -8,-8l0,-56c0,-4.4 3.6,-8 8,-8l56,0c4.4,0 8,3.6 8,8l0,56zm0,-84c0,4.4 -3.6,8 -8,8l-56,0c-4.4,0 -8,-3.6 -8,-8l0,-56c0,-4.4 3.6,-8 8,-8l56,0c4.4,0 8,3.6 8,8l0,56zm0,-84c0,4.4 -3.6,8 -8,8l-56,0c-4.4,0 -8,-3.6 -8,-8l0,-56c0,-4.4 3.6,-8 8,-8l56,0c4.4,0 8,3.6 8,8l0,56zm0,-84c0,4.4 -3.6,8 -8,8l-56,0c-4.4,0 -8,-3.6 -8,-8l0,-56c0,-4.4 3.6,-8 8,-8l56,0c4.4,0 8,3.6 8,8l0,56zm48,679c-14.9,0 -27,-12.1 -27,-27s12.1,-27 27,-27s27,12.1 27,27s-12.1,27 -27,27zm36,-91c0,4.4 -3.6,8 -8,8l-56,0c-4.4,0 -8,-3.6 -8,-8l0,-56c0,-4.4 3.6,-8 8,-8l56,0c4.4,0 8,3.6 8,8l0,56zm0,-84c0,4.4 -3.6,8 -8,8l-56,0c-4.4,0 -8,-3.6 -8,-8l0,-56c0,-4.4 3.6,-8 8,-8l56,0c4.4,0 8,3.6 8,8l0,56zm0,-84c0,4.4 -3.6,8 -8,8l-56,0c-4.4,0 -8,-3.6 -8,-8l0,-56c0,-4.4 3.6,-8 8,-8l56,0c4.4,0 8,3.6 8,8l0,56zm0,-84c0,4.4 -3.6,8 -8,8l-56,0c-4.4,0 -8,-3.6 -8,-8l0,-56c0,-4.4 3.6,-8 8,-8l56,0c4.4,0 8,3.6 8,8l0,56zm0,-84c0,4.4 -3.6,8 -8,8l-56,0c-4.4,0 -8,-3.6 -8,-8l0,-56c0,-4.4 3.6,-8 8,-8l56,0c4.4,0 8,3.6 8,8l0,56zm0,-84c0,4.4 -3.6,8 -8,8l-56,0c-4.4,0 -8,-3.6 -8,-8l0,-56c0,-4.4 3.6,-8 8,-8l56,0c4.4,0 8,3.6 8,8l0,56zm0,-84c0,4.4 -3.6,8 -8,8l-56,0c-4.4,0 -8,-3.6 -8,-8l0,-56c0,-4.4 3.6,-8 8,-8l56,0c4.4,0 8,3.6 8,8l0,56zm0,-84c0,4.4 -3.6,8 -8,8l-56,0c-4.4,0 -8,-3.6 -8,-8l0,-56c0,-4.4 3.6,-8 8,-8l56,0c4.4,0 8,3.6 8,8l0,56zm48,679c-14.9,0 -27,-12.1 -27,-27s12.1,-27 27,-27s27,12.1 27,27s-12.1,27 -27,27zm36,-91c0,4.4 -3.6,8 -8,8l-56,0c-4.4,0 -8,-3.6 -8,-8l0,-56c0,-4.4 3.6,-8 8,-8l56,0c4.4,0 8,3.6 8,8l0,56zm0,-84c0,4.4 -3.6,8 -8,8l-56,0c-4.4,0 -8,-3.6 -8,-8l0,-56c0,-4.4 3.6,-8 8,-8l56,0c4.4,0 8,3.6 8,8l0,56zm0,-84c0,4.4 -3.6,8 -8,8l-56,0c-4.4,0 -8,-3.6 -8,-8l0,-56c0,-4.4 3.6,-8 8,-8l56,0c4.4,0 8,3.6 8,8l0,56zm0,-84c0,4.4 -3.6,8 -8,8l-56,0c-4.4,0 -8,-3.6 -8,-8l0,-56c0,-4.4 3.6,-8 8,-8l56,0c4.4,0 8,3.6 8,8l0,56zm0,-84c0,4.4 -3.6,8 -8,8l-56,0c-4.4,0 -8,-3.6 -8,-8l0,-56c0,-4.4 3.6,-8 8,-8l56,0c4.4,0 8,3.6 8,8l0,56zm0,-84c0,4.4 -3.6,8 -8,8l-56,0c-4.4,0 -8,-3.6 -8,-8l0,-56c0,-4.4 3.6,-8 8,-8l56,0c4.4,0 8,3.6 8,8l0,56zm0,-84c0,4.4 -3.6,8 -8,8l-56,0c-4.4,0 -8,-3.6 -8,-8l0,-56c0,-4.4 3.6,-8 8,-8l56,0c4.4,0 8,3.6 8,8l0,56zm0,-84c0,4.4 -3.6,8 -8,8l-56,0c-4.4,0 -8,-3.6 -8,-8l0,-56c0,-4.4 3.6,-8 8,-8l56,0c4.4,0 8,3.6 8,8l0,56zm56,587c-14.9,0 -27,-12.1 -27,-27s12.1,-27 27,-27s27,12.1 27,27s-12.1,27 -27,27zm0,-84c-14.9,0 -27,-12.1 -27,-27s12.1,-27 27,-27s27,12.1 27,27s-12.1,27 -27,27zm0,-84c-14.9,0 -27,-12.1 -27,-27s12.1,-27 27,-27s27,12.1 27,27s-12.1,27 -27,27zm0,-84c-14.9,0 -27,-12.1 -27,-27s12.1,-27 27,-27s27,12.1 27,27s-12.1,27 -27,27zm0,-84c-14.9,0 -27,-12.1 -27,-27s12.1,-27 27,-27s27,12.1 27,27s-12.1,27 -27,27zm0,-84c-14.9,0 -27,-12.1 -27,-27s12.1,-27 27,-27s27,12.1 27,27s-12.1,27 -27,27zm0,-84c-14.9,0 -27,-12.1 -27,-27s12.1,-27 27,-27s27,12.1 27,27s-12.1,27 -27,27zm0,-84c-14.9,0 -27,-12.1 -27,-27s12.1,-27 27,-27s27,12.1 27,27s-12.1,27 -27,27z" id="svg_74"/>
  <path d="m833.5,298.5l-1,0c-12.2,0 -22,9.8 -22,22l0,1c0,12.2 9.8,22 22,22l1,0c12.2,0 22,-9.8 22,-22l0,-1c0,-12.2 -9.8,-22 -22,-22z" id="svg_75"/>
  <path d="m833.5,550.5l-1,0c-12.2,0 -22,9.8 -22,22l0,1c0,12.2 9.8,22 22,22l1,0c12.2,0 22,-9.8 22,-22l0,-1c0,-12.2 -9.8,-22 -22,-22z" id="svg_77"/>
  <path d="m572.5,83.5l1,0c12.2,0 22,-9.8 22,-22l0,-1c0,-12.2 -9.8,-22 -22,-22l-1,0c-12.2,0 -22,9.8 -22,22l0,1c0,12.2 9.8,22 22,22z" id="svg_78"/>
  <path d="m833.5,382.5l-1,0c-12.2,0 -22,9.8 -22,22l0,1c0,12.2 9.8,22 22,22l1,0c12.2,0 22,-9.8 22,-22l0,-1c0,-12.2 -9.8,-22 -22,-22z" id="svg_79"/>
  <path d="m833.5,466.5l-1,0c-12.2,0 -22,9.8 -22,22l0,1c0,12.2 9.8,22 22,22l1,0c12.2,0 22,-9.8 22,-22l0,-1c0,-12.2 -9.8,-22 -22,-22z" id="svg_80"/>
  <path d="m656.5,83.5l1,0c12.2,0 22,-9.8 22,-22l0,-1c0,-12.2 -9.8,-22 -22,-22l-1,0c-12.2,0 -22,9.8 -22,22l0,1c0,12.2 9.8,22 22,22z" id="svg_81"/>
  <path d="m657.5,810.5l-1,0c-12.2,0 -22,9.8 -22,22l0,1c0,12.2 9.8,22 22,22l1,0c12.2,0 22,-9.8 22,-22l0,-1c0,-12.2 -9.8,-22 -22,-22z" id="svg_82"/>
  <path d="m61.5,718.5l-1,0c-12.2,0 -22,9.8 -22,22l0,1c0,12.2 9.8,22 22,22l1,0c12.2,0 22,-9.8 22,-22l0,-1c0,-12.2 -9.8,-22 -22,-22z" id="svg_85"/>
  <path d="m152.5,83.5l1,0c12.2,0 22,-9.8 22,-22l0,-1c0,-12.2 -9.8,-22 -22,-22l-1,0c-12.2,0 -22,9.8 -22,22l0,1c0,12.2 9.8,22 22,22z" id="svg_87"/>
  <path d="m61.5,466.5l-1,0c-12.2,0 -22,9.8 -22,22l0,1c0,12.2 9.8,22 22,22l1,0c12.2,0 22,-9.8 22,-22l0,-1c0,-12.2 -9.8,-22 -22,-22z" id="svg_89"/>
  <path d="m61.5,634.5l-1,0c-12.2,0 -22,9.8 -22,22l0,1c0,12.2 9.8,22 22,22l1,0c12.2,0 22,-9.8 22,-22l0,-1c0,-12.2 -9.8,-22 -22,-22z" id="svg_91"/>
  <path d="m61.5,550.5l-1,0c-12.2,0 -22,9.8 -22,22l0,1c0,12.2 9.8,22 22,22l1,0c12.2,0 22,-9.8 22,-22l0,-1c0,-12.2 -9.8,-22 -22,-22z" id="svg_93"/>
  <path d="m741.5,810.5l-1,0c-12.2,0 -22,9.8 -22,22l0,1c0,12.2 9.8,22 22,22l1,0c12.2,0 22,-9.8 22,-22l0,-1c0,-12.2 -9.8,-22 -22,-22z" id="svg_94"/>
  <path d="m236.5,83.5l1,0c12.2,0 22,-9.8 22,-22l0,-1c0,-12.2 -9.8,-22 -22,-22l-1,0c-12.2,0 -22,9.8 -22,22l0,1c0,12.2 9.8,22 22,22z" id="svg_97"/>
 </g>
</svg>